<?xml version="1.0" encoding="utf-8"?>
<!-- Generator: Adobe Illustrator 16.0.0, SVG Export Plug-In . SVG Version: 6.00 Build 0)  -->
<!DOCTYPE svg PUBLIC "-//W3C//DTD SVG 1.1//EN" "http://www.w3.org/Graphics/SVG/1.1/DTD/svg11.dtd">
<svg version="1.1" id="Calque_1" xmlns="http://www.w3.org/2000/svg" xmlns:xlink="http://www.w3.org/1999/xlink" x="0px" y="0px"
	 width="595.28px" height="841.89px" viewBox="0 0 595.28 841.89" enable-background="new 0 0 595.28 841.89" xml:space="preserve">
<g>
	<g>
		<path fill="#0096C7" d="M108,336.39c0,13.5,0,27,0,40.5c0,11.607,18,11.607,18,0c0-13.5,0-27,0-40.5
			C126,324.783,108,324.783,108,336.39L108,336.39z"/>
	</g>
</g>
<g>
	<g>
		<path fill="#0096C7" d="M119,345.39c7.167,0,14.333,0,21.5,0c11.607,0,11.607-18,0-18c-7.167,0-14.333,0-21.5,0
			C107.393,327.39,107.393,345.39,119,345.39L119,345.39z"/>
	</g>
</g>
<g>
	<g>
		<path fill="#0096C7" d="M117,386.39c8.167,0,16.333,0,24.5,0c11.607,0,11.607-18,0-18c-8.167,0-16.333,0-24.5,0
			C105.393,368.39,105.393,386.39,117,386.39L117,386.39z"/>
	</g>
</g>
<g>
	<g>
		<path fill="#0096C7" d="M135,315.89c0,26.5,0,53,0,79.5c0,11.607,18,11.607,18,0c0-26.5,0-53,0-79.5
			C153,304.283,135,304.283,135,315.89L135,315.89z"/>
	</g>
</g>
<g>
	<g>
		<path fill="#0096C7" d="M167,286.89c0,47.667,0,95.333,0,143c0,11.607,18,11.607,18,0c0-47.667,0-95.333,0-143
			C185,275.283,167,275.283,167,286.89L167,286.89z"/>
	</g>
</g>
<g>
	<g>
		<path fill="#0096C7" d="M205.5,284.39c0,48.667,0,97.333,0,146c0,11.607,18,11.607,18,0c0-48.667,0-97.333,0-146
			C223.5,272.783,205.5,272.783,205.5,284.39L205.5,284.39z"/>
	</g>
</g>
<g>
	<g>
		<path fill="#0096C7" d="M185,286.89c0.461-3.568,2.21-6.286,4.22-8.267c1.479-1.458,4.789-2.657,6.172-2.762
			c0.837-0.064,1.678-0.018,2.514,0.028c-1.962-0.108,0.577,0.155,0.889,0.229c0.211,0.05,2.678,1.001,0.968,0.234
			c0.331,0.148,2.996,1.869,1.708,0.852c2.616,2.067,3.744,4.397,4.029,8.3c0.838,11.505,18.845,11.587,18,0
			c-1.11-15.234-11.327-27.497-27.268-27.671c-16.65-0.182-27.266,13.85-29.232,29.056c-0.631,4.878,4.571,9,9,9
			C181.382,295.89,184.371,291.754,185,286.89L185,286.89z"/>
	</g>
</g>
<g>
	<g>
		<path fill="#0096C7" d="M167.321,432.783c5.399,26.676,50.983,27.299,55.857,0c0.861-4.825-1.235-9.682-6.286-11.071
			c-4.396-1.209-10.208,1.452-11.071,6.286c-0.091,0.624-0.221,1.239-0.389,1.847c-0.603,2.47,0.686-1.015-0.474,1.146
			c-1.181,2.2,0.983-0.891-0.675,0.945c-0.097,0.107-2.19,1.792-0.839,0.827c-2.422,1.729-4.962,2.267-7.539,2.372
			c-3.016,0.123-5.492-0.495-7.818-1.805c-2.275-1.279,0.933,1.001-1.021-0.69c-0.084-0.072-1.873-2.155-0.903-0.826
			c-1.142-1.564-0.995-1.401-1.483-3.816C182.376,416.625,165.028,421.451,167.321,432.783L167.321,432.783z"/>
	</g>
</g>
<g>
	<g>
		<path fill="#0096C7" d="M216,345.89c11.167,0,22.333,0,33.5,0c11.607,0,11.607-18,0-18c-11.167,0-22.333,0-33.5,0
			C204.393,327.89,204.393,345.89,216,345.89L216,345.89z"/>
	</g>
</g>
<g>
	<g>
		<path fill="#0096C7" d="M151.771,320.433c4.298-8.906,9.655-7.625,17.186-2.271c4.006,2.848,10,0.72,12.314-3.229
			c2.646-4.518,0.761-9.477-3.229-12.314c-6.879-4.891-15.178-8.012-23.685-6.469c-8.347,1.514-14.553,7.79-18.129,15.198
			c-2.132,4.418-1.249,9.69,3.229,12.314C143.435,325.991,149.64,324.849,151.771,320.433L151.771,320.433z"/>
	</g>
</g>
<g>
	<g>
		<path fill="#0096C7" d="M136.229,401.601c6.682,15.619,24.034,16.829,38.664,14.636c4.859-0.729,7.468-6.775,6.286-11.071
			c-1.417-5.149-6.224-7.013-11.071-6.286c-7.409,1.11-15.083,1.24-18.336-6.364c-1.931-4.514-8.482-5.473-12.314-3.229
			C134.837,391.993,134.299,397.09,136.229,401.601L136.229,401.601z"/>
	</g>
</g>
<g>
	<g>
		<path fill="#0096C7" d="M218,384.89c6.167,0,12.333,0,18.5,0c11.607,0,11.607-18,0-18c-6.167,0-12.333,0-18.5,0
			C206.393,366.89,206.393,384.89,218,384.89L218,384.89z"/>
	</g>
</g>
<g>
	<g>
		<path fill="#0096C7" d="M230.5,357.89c0,17.833,0,35.667,0,53.5c0,11.607,18,11.607,18,0c0-17.833,0-35.667,0-53.5
			C248.5,346.283,230.5,346.283,230.5,357.89L230.5,357.89z"/>
	</g>
</g>
<g>
	<g>
		<path fill="#0096C7" d="M233.136,419.004c8.677,8.561,18.322,16.065,27,24.626c8.267,8.155,21-4.567,12.728-12.729
			c-8.677-8.561-18.322-16.065-27-24.625C237.597,398.12,224.863,410.843,233.136,419.004L233.136,419.004z"/>
	</g>
</g>
<g>
	<g>
		<path fill="#0096C7" d="M241,364.64c16.667,0,33.333,0,50,0c8.706,0,8.706-13.5,0-13.5c-16.667,0-33.333,0-50,0
			C232.294,351.14,232.294,364.64,241,364.64L241,364.64z"/>
	</g>
</g>
<g>
	<g>
		<path fill="#0096C7" d="M287.958,365.662c0.481,0.215,2.793,1.876,1.418,0.68c0.388,0.362,0.752,0.746,1.092,1.153
			c-0.595-0.751-0.601-0.693-0.018,0.173c0.56,0.908,0.857,1.765,0.892,3.398c0.022,1.013-0.015,1.247-0.542,1.821
			c-0.471,0.515-0.838,0.541-0.715,0.496c-1.225,0.451-2.117,0.474-3.335,0.507c-11.583,0.317-11.614,18.318,0,18
			c11.667-0.319,21.328-7.059,22.484-19.183c0.833-8.729-3.962-18.905-12.192-22.589c-4.478-2.004-9.638-1.339-12.314,3.229
			C282.453,357.232,283.478,363.656,287.958,365.662L287.958,365.662z"/>
	</g>
</g>
<g>
	<g>
		<path fill="#0096C7" d="M284,373.89c-5.833,0-11.667,0-17.5,0c-11.607,0-11.607,18,0,18c5.833,0,11.667,0,17.5,0
			C295.607,391.89,295.607,373.89,284,373.89L284,373.89z"/>
	</g>
</g>
<g>
	<g>
		<path fill="#0096C7" d="M255.5,382.89c0,5,0,10,0,15c0,11.607,18,11.607,18,0c0-5,0-10,0-15
			C273.5,371.283,255.5,371.283,255.5,382.89L255.5,382.89z"/>
	</g>
</g>
<g>
	<g>
		<path fill="#0096C7" d="M264.5,406.89c4.51,0.571,8.974,1.649,13.253,3.174c2.688,0.958,6.148,3.212,8.008,4.94
			c2.775,2.579,4.13,5.012,5.906,8.87c1.815,3.942,2.871,9.714,3.654,14.409c0.808,4.845,6.716,7.483,11.071,6.286
			c5.092-1.4,7.092-6.236,6.286-11.071c-1.915-11.487-5.747-22.849-14.189-31.221c-9.05-8.975-21.799-11.843-33.989-13.386
			c-4.879-0.618-9,4.562-9,9C255.5,403.262,259.634,406.274,264.5,406.89L264.5,406.89z"/>
	</g>
</g>
<g>
	<g>
		<path fill="#0096C7" d="M261.5,353.89c-0.35-4.257-0.729-8.511-0.901-12.78c-0.162-4.01,0.043-8.613,0.529-11.002
			c0.173-0.852,0.422-1.683,0.676-2.513c0.772-2.528-0.778,1.401,0.359-0.886c0.126-0.253,1.57-2.331,0.335-0.783
			c0.333-0.394,0.69-0.767,1.069-1.117c-0.831,0.573-0.813,0.57,0.051-0.008c1.994-1.314-1.508,0.364,0.89-0.446
			c1.743-0.589,1.096-0.338,2.368-0.402c2.666-0.133,5.168,0.458,7.73,1.115c11.252,2.884,16.022-14.477,4.785-17.357
			c-12.603-3.23-27.518-2.069-33.461,11.382c-4.833,10.937-3.381,23.227-2.432,34.797c0.401,4.888,3.791,9,9,9
			C257.102,362.89,261.902,358.787,261.5,353.89L261.5,353.89z"/>
	</g>
</g>
<g>
	<g>
		<path fill="#0096C7" d="M282.542,325.162c2.968-2.24,5.789-2.648,9.461-2.549c1.652,0.044,3.214,0.498,4.786,0.978
			c1.089,0.333,1.365,0.661,1.846,1.163c8.035,8.404,20.745-4.342,12.729-12.728c-8.945-9.356-27.778-10.049-37.907-2.408
			c-3.908,2.949-5.928,7.706-3.229,12.314C272.49,325.792,278.616,328.124,282.542,325.162L282.542,325.162z"/>
	</g>
</g>
<g>
	<g>
		<path fill="#0096C7" d="M307.543,326.162c4.896-3.107,9.654-4.959,14.593-0.908c3.789,3.108,9.006,3.722,12.729,0
			c3.212-3.212,3.798-9.612,0-12.728c-11.3-9.27-24.081-9.728-36.407-1.908C288.688,316.817,297.709,332.4,307.543,326.162
			L307.543,326.162z"/>
	</g>
</g>
<g>
	<g>
		<path fill="#0096C7" d="M334.393,325.569c2.836-0.845,4.701-1.276,6.896-1.382c0.423-0.02,3.81,0.342,2.176,0.047
			c0.565,0.117,1.123,0.266,1.672,0.447c-0.828-0.404-0.772-0.368,0.167,0.108c0.713,0.37,1.584,1.25,1.995,2.298
			c1.359,3.467,1.317,7.141,1.202,10.803c-0.365,11.614,17.636,11.579,18,0c0.325-10.335-1.73-21.409-10.707-27.725
			c-7.627-5.367-17.711-4.477-26.186-1.954C318.51,311.516,323.239,328.889,334.393,325.569L334.393,325.569z"/>
	</g>
</g>
<g>
	<g>
		<path fill="#0096C7" d="M348.321,339.998c-1.332,3.462-2.951,6.846-5.201,8.939c1.099-1.022-1.554,0.372,0.092-0.173
			c1.698-0.562-1.18-0.035,0.063,0.142c-2.336-0.332-4.265-1.567-6.232-2.787c-9.899-6.129-18.931,9.446-9.086,15.543
			c7.625,4.721,15.42,6.629,23.832,2.919c7.493-3.305,11.185-12.772,13.89-19.798c1.765-4.584-1.909-9.867-6.286-11.071
			C354.309,332.313,350.082,335.423,348.321,339.998L348.321,339.998z"/>
	</g>
</g>
<g>
	<g>
		<path fill="#0096C7" d="M322.957,345.619c-4.516,2.955-7.465,3.243-11.914,0c-3.974-2.895-10.022-0.683-12.314,3.229
			c-2.668,4.555-0.728,9.431,3.229,12.314c9.213,6.713,20.742,6.113,30.086,0C341.711,354.834,332.702,339.242,322.957,345.619
			L322.957,345.619z"/>
	</g>
</g>
<g>
	<g>
		<path fill="#0096C7" d="M296.136,345.526c-0.278,0.278-0.568,0.543-0.87,0.796c1.053-0.787,1.183-0.904,0.387-0.352
			c-0.671,0.452-1.402,0.807-2.133,1.148c2.32-1.083-0.262-0.04-0.826,0.111c-0.848,0.228-1.719,0.36-2.587,0.481
			c-4.868,0.681-7.458,6.811-6.286,11.071c0.619,2.25,2.125,4.2,4.136,5.379c2.293,1.343,4.415,1.26,6.935,0.907
			c5.25-0.734,10.145-3.153,13.972-6.815c3.544-3.391,3.409-9.318,0-12.728C305.339,342.001,299.679,342.137,296.136,345.526
			L296.136,345.526z"/>
	</g>
</g>
<g>
	<g>
		<path fill="#0096C7" d="M358.5,346.89c11.167,0,22.333,0,33.5,0c11.607,0,11.607-18,0-18c-11.167,0-22.333,0-33.5,0
			C346.893,328.89,346.893,346.89,358.5,346.89L358.5,346.89z"/>
	</g>
</g>
<g>
	<g>
		<path fill="#0096C7" d="M383,287.89c0,48.5,0,97,0,145.5c0,11.607,18,11.607,18,0c0-48.5,0-97,0-145.5
			C401,276.283,383,276.283,383,287.89L383,287.89z"/>
	</g>
</g>
<g>
	<g>
		<path fill="#0096C7" d="M422,288.89c0,47.5,0,95,0,142.5c0,11.607,18,11.607,18,0c0-47.5,0-95,0-142.5
			C440,277.283,422,277.283,422,288.89L422,288.89z"/>
	</g>
</g>
<g>
	<g>
		<path fill="#0096C7" d="M399.771,291.601c1.463-3.291,3.089-5.876,5.81-8.223c1.335-1.151,3.899-1.61,5.223-1.657
			c1.162-0.041,1.003-0.054,2.685,0.372c1.205,0.305,2.256,0.925,3.678,1.84c2.858,1.84,4.662,5.467,6.062,8.5
			c2.058,4.454,8.392,5.526,12.314,3.229c4.531-2.655,5.285-7.86,3.229-12.314c-5.095-11.03-14.726-18.64-26.948-19.604
			c-12.176-0.961-22.917,8.255-27.595,18.772c-1.993,4.483-1.347,9.633,3.229,12.313
			C391.334,297.101,397.777,296.085,399.771,291.601L399.771,291.601z"/>
	</g>
</g>
<g>
	<g>
		<path fill="#0096C7" d="M383,433.39c1.158,27.465,55.885,27.745,57,0c0.467-11.611-17.535-11.566-18,0
			c-0.095,2.363,0.514-1.794-0.13,0.364c0.701-2.352-0.871,0.735,0.605-1.073c-0.261,0.319-1.973,1.698-0.314,0.477
			c-0.615,0.453-1.3,0.808-1.973,1.163c-2.241,1.184,1.623-0.537-0.877,0.312c-0.818,0.277-1.663,0.472-2.503,0.667
			c-0.108,0.025-2.956,0.453-1.158,0.242c-1.223,0.144-2.456,0.176-3.687,0.194c-0.928,0.014-1.854-0.041-2.78-0.096
			c-2.937-0.173,1.62,0.341-1.241-0.123c-0.878-0.143-1.741-0.355-2.604-0.57c-0.35-0.087-3.533-1.238-1.81-0.49
			c-0.718-0.312-1.394-0.705-2.065-1.104c-2.053-1.216,1.203,1.172-0.464-0.37c-1.618-1.497,0.873,1.515-0.235-0.304
			c0.36,0.591,0.273,1.618,0.235,0.711C400.513,421.827,382.511,421.779,383,433.39L383,433.39z"/>
	</g>
</g>
<g>
	<g>
		<path fill="#0096C7" d="M438.043,317.162c2.297-1.164,4.544-2.179,6.995-2.97c0.402-0.13,3.745-0.854,2.631-0.723
			c0.472-0.056,3.805,0.206,2.058-0.108c1.136,0.204,1.396,0.314,2.224,1.568c1.718,2.603,2.277,5.853,2.871,8.854
			c2.253,11.381,19.602,6.55,17.357-4.785c-1.865-9.422-6.271-19.238-16.056-22.521c-9.238-3.099-18.984,0.998-27.166,5.14
			C418.6,306.864,427.714,322.392,438.043,317.162L438.043,317.162z"/>
	</g>
</g>
<g>
	<g>
		<path fill="#0096C7" d="M454.5,322.89c0,24.333,0,48.667,0,73c0,11.607,18,11.607,18,0c0-24.333,0-48.667,0-73
			C472.5,311.283,454.5,311.283,454.5,322.89L454.5,322.89z"/>
	</g>
</g>
<g>
	<g>
		<path fill="#0096C7" d="M427.957,411.162c14.982,10.635,35.076,7.965,43.314-9.479c2.095-4.436,1.275-9.675-3.229-12.314
			c-3.95-2.313-10.22-1.207-12.314,3.229c-1.825,3.866-4.464,6.898-7.249,7.143c-4.213,0.37-7.667-1.445-11.437-4.122
			c-4.009-2.845-10-0.722-12.314,3.229C422.084,403.363,423.966,408.328,427.957,411.162L427.957,411.162z"/>
	</g>
</g>
<g>
	<g>
		<path fill="#0096C7" d="M466.5,345.39c7.167,0,14.333,0,21.5,0c11.607,0,11.607-18,0-18c-7.167,0-14.333,0-21.5,0
			C454.893,327.39,454.893,345.39,466.5,345.39L466.5,345.39z"/>
	</g>
</g>
<g>
	<g>
		<path fill="#0096C7" d="M479,337.058c0,13.5,0,27,0,40.5c0,11.607,18,11.607,18,0c0-13.5,0-27,0-40.5
			C497,325.451,479,325.451,479,337.058L479,337.058z"/>
	</g>
</g>
<g>
	<g>
		<path fill="#0096C7" d="M488,368.39c-6.167,0-12.333,0-18.5,0c-11.607,0-11.607,18,0,18c6.167,0,12.333,0,18.5,0
			C499.607,386.39,499.607,368.39,488,368.39L488,368.39z"/>
	</g>
</g>
<g>
	<g>
		<path fill="#0096C7" d="M300.061,384.89c28.813,0,57.626,0,86.439,0c11.607,0,11.607-18,0-18c-28.813,0-57.626,0-86.439,0
			C288.453,366.89,288.453,384.89,300.061,384.89L300.061,384.89z"/>
	</g>
</g>
<g>
	<g>
		<path fill="#0096C7" d="M352.5,378.89c0,11.667,0,23.333,0,35c0,11.607,18,11.607,18,0c0-11.667,0-23.333,0-35
			C370.5,367.283,352.5,367.283,352.5,378.89L352.5,378.89z"/>
	</g>
</g>
<g>
	<g>
		<path fill="#0096C7" d="M355.136,407.526c-7.4,9.557-13.524,20.011-20.907,29.571c-3.007,3.895-0.596,10.074,3.229,12.314
			c4.645,2.72,9.322,0.646,12.314-3.229c6.445-8.347,11.639-17.594,18.093-25.929c3-3.875,3.794-8.933,0-12.728
			C364.725,404.387,358.146,403.64,355.136,407.526L355.136,407.526z"/>
	</g>
</g>
<g>
	<g>
		<path fill="#0096C7" d="M333,441.64c0,34.75,0,69.5,0,104.25c0,0.136,18,0.136,18,0c0-34.75,0-69.5,0-104.25
			C351,441.504,333,441.504,333,441.64L333,441.64z"/>
	</g>
</g>
<g>
	<g>
		<path fill="#0096C7" d="M257.5,438.89c0,35.667,0,71.333,0,107c0,0.136,18,0.136,18,0c0-35.667,0-71.333,0-107
			C275.5,438.754,257.5,438.754,257.5,438.89L257.5,438.89z"/>
	</g>
</g>
<g>
	<g>
		<path fill="#0096C7" d="M271.75,320.89c0,9.833,0,19.667,0,29.5c0,8.706,13.5,8.706,13.5,0c0-9.833,0-19.667,0-29.5
			C285.25,312.185,271.75,312.185,271.75,320.89L271.75,320.89z"/>
	</g>
</g>
<g>
	<g>
		<path fill="#0096C7" d="M297.25,317.89c0,11,0,22,0,33c0,8.706,13.5,8.706,13.5,0c0-11,0-22,0-33
			C310.75,309.185,297.25,309.185,297.25,317.89L297.25,317.89z"/>
	</g>
</g>
<g>
	<g>
		<path fill="#0096C7" d="M322.25,320.39c0,9.667,0,19.333,0,29c0,8.706,13.5,8.706,13.5,0c0-9.667,0-19.333,0-29
			C335.75,311.685,322.25,311.685,322.25,320.39L322.25,320.39z"/>
	</g>
</g>
<g>
	<g>
		<path fill="#0096C7" d="M247.645,356.55c9.431,7.185,26.082,8.955,35.406,0.592c8.659-7.765-4.115-20.452-12.728-12.728
			c0.916-0.822,0.79-0.548-0.151-0.266c-1.666,0.5-2.492,0.417-4.28,0.412c-3.507-0.011-6.433-1.474-9.163-3.554
			c-3.913-2.98-10.062-0.616-12.314,3.229C241.708,348.859,243.751,353.583,247.645,356.55L247.645,356.55z"/>
	</g>
</g>
<g>
	<g>
		<path fill="#0096C7" d="M281.857,363.569c6.539,2.71,13.132,1.824,19.535-0.75c4.548-1.829,7.699-5.934,6.286-11.071
			c-1.189-4.325-6.512-8.119-11.071-6.286c-0.963,0.388-1.928,0.76-2.904,1.111c-0.348,0.125-3.793,0.943-2.014,0.716
			c-0.175,0.022-2.897-0.083-1.136,0.174c-1.357-0.198-2.654-0.73-3.911-1.251c-4.541-1.882-9.892,1.999-11.071,6.286
			C274.148,357.673,277.329,361.692,281.857,363.569L281.857,363.569z"/>
	</g>
</g>
<g>
	<g>
		<path fill="#0096C7" d="M324.457,359.662c17.799,11.435,41.566-0.307,42.043-21.771c0.258-11.614-17.742-11.589-18,0
			c-0.185,8.322-8.977,10.072-14.957,6.229C323.745,337.824,314.729,353.411,324.457,359.662L324.457,359.662z"/>
	</g>
</g>
</svg>
